<svg xmlns="http://www.w3.org/2000/svg" viewBox="0 0 64 64" role="img" aria-labelledby="title desc">
  <title id="title">Sayyidina Anshari Ahmad favicon</title>
  <desc id="desc">Neo-brutalist SA monogram badge in yellow, coral, cyan, and black.</desc>
  <rect x="9" y="10" width="48" height="48" rx="8" fill="#111111"/>
  <rect x="5" y="5" width="48" height="48" rx="8" fill="#12bfcd" stroke="#111111" stroke-width="4"/>
  <rect x="11" y="11" width="42" height="42" rx="6" fill="#ffd326" stroke="#111111" stroke-width="4"/>
  <path d="M18 22h15v7H24v4h8c3.8 0 6.5 2.5 6.5 6.2 0 4.3-3.2 7.8-8.9 7.8H18v-7h11.2c1.3 0 2.1-.5 2.1-1.4s-.8-1.4-2.1-1.4H26c-5.2 0-8-2.9-8-7.1z" fill="#111111"/>
  <path d="M39.5 22H47l7 25h-7.2l-.9-4.1h-6.1l-1 4.1h-6.9zm1.6 15.4h3.5l-1.7-7.3z" fill="#ff5b3f" stroke="#111111" stroke-width="1.6" stroke-linejoin="round"/>
  <path d="M14 14h8v4h-8zM46 49h5v3h-5z" fill="#fff8e8"/>
</svg>
